<?xml version="1.0" standalone="no"?>
<!DOCTYPE svg PUBLIC "-//W3C//DTD SVG 20010904//EN"
 "http://www.w3.org/TR/2001/REC-SVG-20010904/DTD/svg10.dtd">
<svg version="1.0" xmlns="http://www.w3.org/2000/svg"
 width="1128.000000pt" height="1128.000000pt" viewBox="0 0 1128.000000 1128.000000"
 preserveAspectRatio="xMidYMid meet">
<metadata>
Created by potrace 1.14, written by Peter Selinger 2001-2017
</metadata>
<g transform="translate(0.000000,1128.000000) scale(0.100000,-0.100000)"
fill="#000000" stroke="none">
<path d="M4950 10495 c-63 -7 -128 -13 -143 -14 -23 -1 -28 -5 -25 -23 3 -20
8 -23 43 -20 76 6 72 23 115 -438 25 -271 35 -420 29 -431 -5 -11 -27 -20 -54
-25 -39 -5 -45 -10 -45 -30 0 -20 4 -23 28 -19 15 3 180 19 367 35 187 17 345
33 351 35 11 3 34 127 34 180 0 36 -36 34 -45 -2 -10 -44 -51 -89 -97 -111
-30 -14 -82 -24 -173 -31 -71 -7 -144 -14 -161 -16 -21 -4 -38 0 -52 12 -20
17 -24 48 -59 427 -37 400 -37 408 -18 422 10 8 36 14 57 14 34 0 38 3 38 25
0 29 -6 30 -190 10z"/>
<path d="M6724 10399 c-10 -11 -32 -28 -48 -37 -19 -12 -108 -137 -270 -382
-133 -201 -255 -376 -271 -388 -23 -18 -37 -22 -66 -17 -31 5 -37 3 -42 -14
-3 -12 -4 -21 -2 -21 2 0 62 -13 135 -30 73 -16 134 -30 137 -30 2 0 3 10 1
22 -2 17 -13 25 -41 31 -66 16 -62 31 55 205 45 67 75 102 87 102 22 0 321
-67 327 -73 10 -10 47 -304 41 -321 -6 -16 -14 -18 -56 -12 -40 5 -50 3 -55
-10 -4 -9 -5 -18 -3 -20 8 -8 347 -81 352 -76 17 17 2 39 -32 48 -29 7 -42 17
-55 44 -10 21 -42 215 -82 490 -74 508 -75 510 -85 510 -4 0 -16 -9 -27 -21z
m-36 -361 c16 -109 25 -198 21 -198 -14 0 -273 61 -277 65 -3 3 46 82 109 176
62 94 115 167 116 163 2 -5 16 -98 31 -206z"/>
<path d="M3925 10260 c-60 -27 -131 -59 -158 -70 -41 -18 -46 -23 -37 -39 9
-18 12 -18 54 -3 35 13 47 14 59 4 21 -18 160 -333 150 -343 -4 -4 -115 -55
-246 -112 l-239 -105 -30 66 c-134 300 -133 292 -65 325 36 18 47 40 28 52 -5
3 -67 -20 -138 -51 -70 -31 -143 -63 -161 -70 -27 -12 -31 -17 -22 -33 9 -18
12 -18 54 -3 36 13 47 14 59 3 23 -18 349 -760 345 -785 -2 -12 -18 -29 -40
-41 -35 -19 -53 -55 -27 -55 6 0 61 22 123 49 61 27 133 59 159 70 43 19 47
23 37 41 -10 19 -13 19 -40 5 -35 -18 -74 -19 -88 -2 -12 14 -162 353 -162
364 0 7 449 208 479 215 17 4 173 -345 169 -376 -2 -12 -19 -29 -40 -41 -38
-20 -49 -42 -25 -50 14 -6 320 128 324 141 1 5 -1 15 -6 22 -7 12 -14 11 -40
-3 -18 -9 -44 -15 -59 -13 -25 3 -38 28 -194 378 -114 256 -167 384 -165 405
2 28 29 51 80 68 12 4 -3 37 -17 36 -6 0 -60 -22 -121 -49z"/>
<path d="M7857 10003 c-15 -14 -5 -32 28 -52 27 -16 35 -27 34 -48 0 -18 -78
-157 -212 -378 -231 -381 -226 -375 -292 -336 l-35 20 -11 -20 c-6 -12 -9 -22
-7 -23 39 -33 443 -261 485 -275 192 -65 433 -5 567 140 101 108 164 272 152
390 -17 169 -94 257 -346 393 -91 50 -205 114 -253 143 -90 54 -99 58 -110 46z
m441 -357 c69 -65 128 -180 137 -269 17 -158 -83 -340 -228 -414 -147 -75
-383 -17 -522 128 -31 32 -54 62 -52 66 2 5 91 153 197 330 l193 323 111 -57
c69 -35 131 -76 164 -107z"/>
<path d="M2370 9409 c-74 -61 -136 -114 -138 -118 -1 -5 3 -13 11 -19 10 -9
21 -6 48 14 19 13 43 23 53 22 18 -3 488 -557 537 -633 25 -40 25 -41 -17 -83
-30 -30 -33 -37 -21 -49 12 -12 32 0 138 88 164 135 155 125 140 143 -11 13
-18 11 -55 -15 -27 -20 -48 -28 -59 -23 -29 11 -547 646 -547 670 0 13 15 34
38 52 33 28 35 32 22 46 -14 14 -29 5 -150 -95z"/>
<path d="M9242 8998 c-8 -8 -5 -18 13 -40 27 -32 32 -65 13 -90 -35 -44 -622
-538 -640 -538 -11 0 -33 14 -48 30 -18 19 -34 28 -44 24 -9 -3 -16 -10 -16
-14 0 -6 422 -502 476 -560 12 -12 26 -8 104 30 49 24 90 47 90 51 0 19 -29
29 -56 19 -32 -13 -115 1 -151 26 -39 25 -243 265 -243 286 0 10 15 33 33 49
54 51 258 224 265 226 13 3 202 -228 202 -247 0 -11 -14 -32 -30 -47 -21 -20
-29 -34 -24 -46 3 -9 10 -17 14 -17 11 0 220 180 220 189 0 4 -5 12 -11 18 -8
8 -22 3 -53 -18 -24 -17 -48 -27 -56 -24 -14 6 -202 218 -208 234 -1 5 56 59
129 120 92 78 138 111 152 109 20 -3 155 -147 218 -232 36 -49 39 -114 8 -165
-18 -29 -18 -36 -6 -48 12 -12 24 -5 87 55 l74 69 -243 281 c-134 155 -247
282 -250 282 -4 0 -12 -5 -19 -12z"/>
<path d="M1482 8468 c-199 -271 -220 -302 -204 -314 15 -11 21 -8 45 22 17 20
38 34 51 34 13 0 136 -84 301 -206 374 -275 395 -291 395 -312 0 -9 -11 -33
-24 -53 -23 -33 -23 -36 -6 -46 15 -10 44 24 236 285 120 162 220 301 222 307
1 6 -25 43 -59 84 -54 64 -63 71 -76 58 -13 -13 -13 -18 2 -40 26 -41 22 -138
-9 -190 -55 -91 -191 -262 -212 -265 -14 -2 -73 35 -172 108 -83 61 -153 114
-156 118 -5 9 166 242 188 254 13 7 28 3 58 -17 37 -24 42 -25 56 -11 9 8 14
17 11 19 -2 2 -57 43 -121 90 -112 82 -118 85 -129 66 -11 -21 -3 -33 44 -60
9 -5 17 -20 17 -32 0 -33 -176 -270 -193 -260 -52 32 -266 197 -271 209 -3 9
-1 25 5 37 20 38 171 241 193 259 37 31 89 40 136 24 37 -13 41 -12 51 5 8 16
2 24 -48 55 -32 21 -69 45 -84 55 l-25 18 -222 -301z"/>
<path d="M5350 8429 c-1550 -137 -2735 -1472 -2676 -3015 34 -906 456 -1711
1182 -2255 406 -305 895 -498 1419 -560 142 -17 508 -17 650 0 820 98 1532
508 2026 1167 305 406 498 895 560 1419 17 142 17 508 0 650 -95 797 -490
1500 -1116 1988 -408 318 -898 522 -1421 592 -144 19 -480 27 -624 14z m-618
-870 c209 -45 351 -251 317 -461 -43 -270 -328 -425 -570 -311 -161 75 -245
215 -237 393 7 140 75 259 189 327 95 57 196 74 301 52z m-178 -1109 c49 -71
92 -128 95 -126 3 2 44 61 91 130 l85 126 161 -2 c150 -3 163 -5 195 -27 19
-13 159 -184 311 -379 l277 -356 -73 -27 c-72 -26 -222 -98 -260 -125 -11 -8
-23 -14 -27 -14 -3 0 -62 72 -130 160 l-124 159 -3 -274 -2 -274 -50 -65
c-133 -177 -220 -386 -251 -605 -18 -131 -7 -364 24 -483 47 -181 120 -331
228 -474 55 -73 61 -106 33 -187 -20 -60 -95 -129 -159 -147 -106 -30 -225 23
-276 122 -10 21 -19 46 -19 58 0 11 -4 20 -10 20 -5 0 -10 -9 -10 -20 0 -30
-34 -91 -67 -121 -95 -89 -225 -90 -323 -2 -83 75 -80 46 -80 774 l0 638 -37
7 c-87 16 -168 85 -191 163 -9 27 -12 223 -12 685 0 704 -1 688 57 742 51 49
75 53 273 54 l185 0 89 -130z m1771 -770 c105 -19 197 -50 300 -101 279 -137
492 -391 579 -692 153 -529 -101 -1095 -597 -1327 -526 -247 -1143 -59 -1446
441 -300 495 -159 1150 321 1492 134 96 342 176 508 197 86 10 247 5 335 -10z"/>
<path d="M10138 7769 c-16 -9 -17 -13 -3 -46 21 -50 19 -80 -7 -97 -13 -8
-187 -83 -387 -166 -405 -169 -397 -167 -429 -90 -9 22 -21 40 -27 40 -35 0
-32 -20 29 -165 50 -120 66 -150 82 -150 21 0 21 8 2 73 -9 31 -9 48 -2 60 9
14 663 297 670 289 1 -1 -115 -199 -258 -440 l-260 -438 20 -20 c12 -10 23
-19 26 -19 2 0 188 77 412 170 277 115 416 169 431 165 15 -3 32 -24 48 -55
26 -52 31 -55 53 -42 9 7 -3 45 -52 163 -53 127 -68 153 -83 151 -27 -6 -27
-7 -8 -57 30 -78 35 -75 -316 -221 -173 -72 -315 -130 -317 -129 -1 1 108 188
243 414 l245 412 -41 97 c-22 53 -43 100 -47 104 -4 4 -15 2 -24 -3z"/>
<path d="M1655 7279 c-5 -15 -2 -25 9 -31 21 -12 51 -73 60 -121 6 -29 -2 -62
-35 -160 -65 -190 -84 -227 -112 -227 -22 0 -728 249 -771 272 -18 10 -19 44
-1 104 5 15 1 23 -11 28 -9 3 -19 4 -22 2 -11 -12 -121 -330 -116 -337 12 -20
42 -8 49 19 8 32 33 62 51 62 20 0 787 -279 798 -290 7 -7 6 -25 -2 -56 -7
-25 -10 -50 -6 -55 21 -34 42 11 160 336 68 187 123 347 123 355 1 8 -34 38
-76 65 -94 62 -90 61 -98 34z"/>
<path d="M1024 5446 c-29 -29 -34 -41 -34 -80 0 -61 37 -105 96 -113 97 -13
164 80 119 167 -21 42 -53 60 -103 60 -37 0 -50 -6 -78 -34z"/>
<path d="M10032 5464 c-101 -70 -41 -227 81 -211 100 14 134 130 57 200 -35
32 -101 37 -138 11z"/>
<path d="M9262 4241 c-34 -83 -62 -154 -62 -159 0 -5 9 -12 19 -15 15 -3 23 5
37 35 38 83 24 86 383 -64 176 -73 317 -136 313 -139 -4 -3 -212 -57 -462
-119 -250 -62 -460 -118 -467 -124 -18 -18 -85 -187 -79 -202 10 -26 32 -14
54 31 14 30 30 47 46 51 19 4 118 -33 388 -146 200 -83 373 -158 386 -166 25
-16 29 -52 11 -104 -9 -26 -9 -34 2 -41 8 -5 17 -9 20 -9 3 0 36 71 72 157 64
155 67 172 30 173 -6 0 -16 -14 -22 -32 -13 -37 -48 -78 -67 -78 -21 0 -677
277 -668 282 5 3 231 60 502 128 l493 123 -3 31 c-3 31 -4 31 -409 201 -224
94 -414 177 -423 184 -20 17 -21 58 -1 104 15 37 12 47 -15 47 -12 0 -34 -42
-78 -149z"/>
<path d="M1871 4361 c-12 -8 -13 -16 -2 -50 21 -73 69 -50 -607 -292 -107 -39
-202 -67 -212 -64 -10 3 -26 26 -36 51 -17 41 -21 44 -38 31 -17 -13 -12 -31
110 -368 70 -195 128 -355 129 -357 1 -1 48 3 104 9 95 11 102 13 99 33 -2 15
-11 21 -36 23 -47 4 -97 30 -130 67 -41 47 -148 346 -133 373 6 12 41 31 88
48 43 15 214 76 381 137 167 60 313 108 325 106 15 -2 29 -17 42 -46 15 -32
25 -42 40 -40 11 2 19 10 17 18 -6 32 -115 330 -121 330 -3 0 -12 -4 -20 -9z"/>
<path d="M2301 3336 c-8 -10 -9 -16 -1 -21 19 -12 39 -62 33 -83 -3 -14 -123
-108 -322 -255 -363 -269 -361 -267 -378 -267 -7 0 -27 16 -44 35 -35 38 -47
43 -55 21 -6 -15 431 -616 448 -616 12 0 160 61 171 70 4 4 5 13 2 22 -5 11
-17 14 -56 10 -57 -5 -125 16 -157 51 -11 12 -61 78 -112 146 -67 91 -90 131
-88 149 2 19 39 52 156 138 85 63 157 114 161 114 9 0 175 -229 184 -254 5
-13 -3 -28 -34 -55 -35 -33 -38 -39 -25 -50 18 -15 15 -17 149 82 87 64 105
82 96 93 -16 19 -22 18 -65 -11 -28 -19 -40 -22 -55 -15 -10 6 -59 65 -108
132 l-91 122 133 98 c142 105 168 118 194 97 36 -29 193 -254 203 -288 11 -43
1 -87 -29 -130 -18 -25 -19 -30 -6 -41 12 -10 28 -1 90 50 41 35 75 65 75 69
-1 11 -436 595 -446 598 -6 2 -16 -3 -23 -11z"/>
<path d="M8525 2893 c-285 -330 -270 -310 -254 -329 11 -13 16 -11 44 16 17
17 42 30 56 30 34 0 652 -535 657 -568 2 -13 -7 -37 -22 -57 -22 -29 -24 -34
-10 -46 18 -15 -14 -48 278 289 140 163 233 279 229 285 -4 7 -30 44 -58 83
-41 58 -55 70 -68 63 -14 -8 -14 -13 -1 -44 19 -47 17 -112 -5 -160 -25 -55
-227 -285 -250 -285 -10 0 -31 10 -47 22 -24 18 -215 181 -263 224 -11 10 4
32 89 129 105 120 124 135 145 119 62 -46 66 -48 81 -32 13 13 3 26 -97 112
-101 88 -114 96 -128 82 -14 -14 -12 -20 22 -54 20 -21 37 -43 37 -49 0 -6
-46 -64 -102 -129 -56 -66 -103 -121 -104 -122 -6 -8 -265 224 -270 241 -7 23
10 47 128 183 48 55 99 106 113 112 36 16 100 15 135 -3 27 -14 29 -14 35 6 4
11 5 22 3 23 -1 1 -32 25 -68 52 -36 28 -69 53 -75 56 -5 3 -109 -109 -230
-249z"/>
<path d="M3052 2447 c-9 -11 -4 -20 23 -44 19 -17 35 -40 35 -50 0 -18 -472
-601 -530 -655 -32 -30 -50 -29 -88 6 -18 16 -27 18 -40 10 -9 -6 -15 -15 -13
-20 4 -7 202 -173 259 -217 8 -6 17 -5 28 4 14 11 11 16 -21 46 -26 24 -35 40
-33 58 4 29 522 662 550 671 10 3 29 -1 41 -10 12 -9 31 -23 42 -31 18 -13 22
-13 32 3 9 16 -7 32 -123 127 -73 61 -137 111 -142 113 -5 1 -14 -3 -20 -11z"/>
<path d="M7775 2207 c-62 -21 -112 -49 -267 -151 -78 -51 -183 -118 -232 -148
-93 -56 -101 -64 -87 -87 7 -11 15 -10 45 9 23 13 45 20 59 16 16 -4 79 -101
241 -371 238 -396 231 -380 168 -420 -33 -21 -39 -34 -21 -52 19 -19 419 227
500 307 164 162 208 432 103 633 -57 110 -147 201 -244 245 -66 31 -200 40
-265 19z m248 -160 c80 -36 122 -72 171 -147 58 -87 79 -149 80 -240 1 -69 -3
-83 -36 -152 -68 -136 -244 -267 -365 -271 l-46 -2 -193 320 c-106 176 -193
325 -194 330 0 16 210 153 260 169 74 24 81 25 176 22 72 -2 102 -8 147 -29z"/>
<path d="M3630 2030 c-9 -17 -7 -22 17 -31 36 -13 63 -38 63 -57 0 -17 -313
-732 -337 -770 -13 -20 -20 -23 -51 -18 -69 12 -76 11 -80 -5 -4 -22 318 -166
330 -147 13 21 10 25 -34 50 -24 13 -44 32 -46 42 -4 16 139 357 158 379 7 7
475 -194 493 -212 11 -11 -148 -364 -171 -379 -17 -11 -26 -10 -58 3 -36 15
-39 15 -51 -1 -7 -10 -12 -19 -10 -20 14 -14 324 -143 334 -140 26 10 12 32
-32 54 -34 16 -45 27 -45 44 0 33 333 780 353 792 12 8 30 6 64 -6 36 -13 49
-14 55 -5 4 7 7 16 5 20 -3 9 -305 146 -323 147 -10 0 -30 -31 -22 -34 36 -14
79 -43 83 -56 3 -10 -21 -77 -55 -154 -33 -75 -66 -152 -74 -170 l-14 -35
-248 110 c-136 60 -249 111 -251 113 -6 6 138 321 155 339 17 16 21 16 66 1
41 -14 50 -14 57 -3 5 8 9 16 9 19 0 3 -49 26 -108 52 -59 26 -133 58 -164 72
-57 25 -58 25 -68 6z"/>
<path d="M6426 1614 c-15 -27 -31 -56 -36 -64 -5 -8 -39 -213 -75 -455 -70
-474 -72 -481 -134 -500 -24 -7 -31 -14 -29 -30 2 -11 8 -19 13 -19 6 1 67 14
138 29 110 24 127 31 127 48 0 18 -5 19 -55 12 l-55 -6 0 53 c0 54 33 284 42
293 9 9 330 76 342 72 19 -7 170 -247 170 -271 1 -20 -7 -24 -91 -51 -1 -1 0
-10 3 -21 5 -20 9 -19 182 19 97 21 178 40 180 41 1 2 -1 11 -4 20 -6 15 -15
17 -49 11 -36 -5 -47 -2 -69 17 -14 13 -145 205 -292 428 -146 223 -270 409
-274 414 -5 5 -20 -13 -34 -40z m128 -333 c59 -90 105 -165 102 -168 -7 -7
-277 -65 -282 -60 -3 2 7 80 21 173 34 231 35 238 45 228 4 -5 56 -83 114
-173z"/>
<path d="M4890 1551 c0 -16 9 -21 45 -26 24 -4 50 -14 56 -22 17 -19 -57 -827
-78 -861 -12 -20 -21 -23 -61 -21 -41 3 -47 1 -50 -18 -3 -18 3 -22 45 -27
101 -13 714 -68 717 -65 11 16 64 184 60 190 -8 14 -44 10 -44 -4 0 -19 -47
-65 -90 -87 -23 -12 -58 -20 -87 -20 -87 1 -326 29 -337 40 -14 14 -12 51 29
477 20 210 39 371 46 379 7 9 31 14 65 14 47 0 54 3 54 19 0 22 -8 24 -189 41
-156 15 -181 14 -181 -9z"/>
</g>
</svg>
